<?xml version="1.0" encoding="UTF-8"?>
<svg id="Layer_2" data-name="Layer 2" xmlns="http://www.w3.org/2000/svg" viewBox="0 0 1484.86818 418.30877">
  <g id="Layer_1-2" data-name="Layer 1">
    <g>
      <g id="book">
        <g id="book-2" data-name="book">
          <path d="M535.29404,98.04621v276.97756c.00346,12.48094-9.53595,23.58091-22.1585,23.58782h-202.40932c-22.48643,27.55825-67.26258,24.94469-85.91327-.03106H21.37131C8.73841,398.5667-.00345,386.71065,0,374.98229V97.91846c.00691-12.00107,10.65114-21.29879,21.90299-21.45416l9.16826-.12429v14.81144c-9.6568-.83206-16.57742-.20714-16.57399,9.66371v275.46184c0,4.23974,4.57463,7.66815,8.64175,7.6716,211.42048.2106,207.56398-1.7401,211.36525,3.71491,14.91846,21.41274,47.82817,21.3955,63.96198,3.06937,1.89545-2.15093,3.75983-6.55294,7.23999-6.55985h207.42585c3.02098-.00346,7.59907-4.30191,7.59907-7.39193,0-3.45255-.16144-280.84633-.23821-281.04465-1.74248-4.64819-12.62614-6.01112-16.72069-4.62643l.01407-14.81144c4.34334.17608,8.06832-.12774,12.62226.4592,9.87429,1.27397,18.88203,10.41289,18.88544,21.28843Z" fill="#020303"/>
          <polygon points="265.19772 100.20769 329.17509 63.66796 493.76911 51.94584 497.31424 355.36376 37.3734 353.19492 37.3734 300.04825 37.3734 53.66948 68.39266 48.19439 221.70123 69.09936 265.19772 100.20769" fill="#fefb10"/>
          <path d="M443.39744,268.10857c-29.212,17.22822-66.08873,19.77621-97.86603,8.24815-41.50657-15.06003-48.07333-62.09416-29.33287-74.21952,26.06331-16.85882,45.93622,13.87926,47.99047,14.97026,2.25107,1.19113,6.75667,3.41804,8.51742-5.09941,5.34113-25.88034-2.93467-42.72533-22.84897-59.61867-20.16978-17.11085-50.4556-24.54075-76.64666-22.30696-5.60694,1.79879-48.05607,2.10607-79.3569,52.31999-33.69692,54.0497-26.88502,68.41576-46.5853,88.1402-18.17767,18.2053-69.05793,30.84511-92.10717,26.35334V78.55309c.01726-4.09472,2.64465-9.08712,7.46096-9.21141,28.70798-.72848,57.21916.03108,85.98926,2.39953,20.94665,1.72282,41.30979,5.1374,61.48651,10.6166,15.06694,4.09472,39.53518,18.09138,52.56511,26.09785,2.97264,1.82639,4.41926,2.98644,4.95786,3.82887,1.19113-1.32577,2.67573-2.73442,4.50558-4.23629,34.19063-17.90493,96.66113-35.74426,135.18465-37.73639,21.63375-1.11862,42.81856-1.46733,64.32106-1.02885,3.65283.07595,8.09799,2.80347,8.25334,6.23876v159.19717c-2.68062,11.28822-16.01121,21.31605-36.48832,33.38964Z" fill="#bcfb26"/>
          <path d="M486.34033,44.03794c-74.9342.50752-170.74253.58348-218.8504,49.49233C221.8679,43.65471,111.75912,44.26925,49.03661,44.08971c-10.09526-.02761-17.7185,5.97637-17.81862,16.35476l-.15537,15.89554.01726,14.81144v272.02313c0,5.4274,3.72875,8.39663,8.05481,8.04101,79.72633-6.54257,149.38157-7.27455,221.64693,21.90643,11.58676,4.68168,13.92415-2.87942,49.10564-12.28417,58.81426-15.72639,123.82925-15.71257,184.39393-9.52212,4.95782.50752,9.49106-2.24416,9.49106-7.56455V91.11002c.01382-.00343.02415-.01035.03793-.0138l.06908-14.79763v-14.52835c.45226-10.75471-7.13644-17.80481-17.53894-17.7323ZM260.20851,361.83845c0,6.41137-5.97982,11.14485-12.22204,9.67406-51.98508-12.23587-100.76273-22.62458-201.54619-15.14634V70.56044c0-6.49771,5.27551-11.76285,11.77322-11.74559,35.43352.10357,140.9021,2.57216,177.61998,27.63422,8.75223,5.97293,17.61147,12.03561,24.37847,20.57722,0,.05523-.00343,186.69676-.00343,254.81215ZM287.10042,371.45034c-6.25602,1.52259-12.28762-3.22122-12.28762-9.66369-.00691-252.82348-.17608-251.01089.36597-254.48415,1.77116-4.37092,8.40698-9.54632,11.88022-12.38776,38.19213-31.26631,135.06041-36.24143,190.36682-36.40025,6.49427-.01726,11.76632,5.24443,11.76632,11.73868l.12079,285.92309c-106.30405-7.83039-148.56329,2.23725-202.2125,15.27409Z" fill="#020303"/>
          <path d="M14.43769,100.81602c-.00231-5.3921,2.34595-8.99987,7.63247-9.69649,2.68242-.35347,5.85587-.23764,8.96628.03043l.08411,272.02527c.00071,2.28904.76356,4.49977,2.00032,5.82493,1.22697,1.31468,3.7371,2.40201,6.01227,2.21527,51.17594-4.2002,98.24492-6.15182,149.51909,1.66885,24.9734,3.80911,48.85247,10.83939,72.12994,20.23873,5.08659,2.05394,8.9123,1.7831,13.86804-.19084,11.62364-4.62985,23.02493-8.83111,35.23638-12.09574,25.11129-6.7133,50.42126-10.74817,76.43291-12.20896,36.16386-2.03092,72.07214-.97974,107.96065,2.68864,4.95795.50678,9.46922-2.24611,9.47009-7.56569l.04466-272.63987c4.33875-1.61735,16.90591.22224,16.90713,5.94909l.05979,279.72131c.00066,3.09118-4.60882,7.24203-7.62895,7.24628l-207.42834.29234c-3.47895.0049-5.34227,4.2609-7.23823,6.41436-16.13382,18.32492-49.04464,18.34096-63.96137-3.06911-1.62758-2.33608-4.19387-3.50863-7.14057-3.51159l-204.22538-.20536c-4.0665-.00409-8.58159-3.43271-8.5834-7.6696l-.11787-275.46226Z" fill="#a230fa"/>
        </g>
        <g>
          <path d="M153.34083,9.69463h138.14248l52.44111,25.55039,16.60993,42.17842-5.417,44.61179-28.50742,27.98376,54.62617,75.43449-8.03728,36.21681-24.0021,10.01723-25.95595-10.01723-66.10657-96.72166-80.12347-3.16834s-12.75017-18.899-12.75017-22.42748,27.56161-25.42881,27.56161-25.42881l44.4939-4.05562,32.45648-6.14008,13.49373-3.03095,14.41295-10.09903-9.56101-20.88055-62.83451-2.02781-54.21009-13.69839-16.73279-44.29694Z" fill="#fdf21a"/>
          <path d="M355.52127,248.04916h-.00002c-5.31866,3.72681-12.65146,2.43632-16.37822-2.88237l-70.22063-100.21663c-.12906-.03352-70.47739-.02095-70.52288-.02095-12.36958,0-12.78365-18.37516.28627-18.37516,11.06951,0,77.85142,1.32525,87.31576-2.49862,45.04849-18.20091,34.06097-69.72985-3.89558-75.4959-10.58929-1.60864-71.12861.04564-81.35861-.98193-14.28477-1.43486-22.59276-13.41643-23.73631-18.67063-.20712-.4998,106.77915-.72075,114.33676.71735,56.60617,11.87073,60.65829,76.61092,23.87917,103.31785-5.3305,3.87071-17.70134,11.82143-17.70134,11.82143,0,0,42.35061,60.47343,60.87849,86.90816,3.72779,5.31864,2.43627,12.6503-2.88285,16.37741Z" fill="#aa35f9"/>
          <path d="M383.30153,214.22463l-44.07953-62.91153C398.28825,98.40619,367.05989,6.04351,289.84705.69551c-17.87387-1.21185-145.80818-.57309-145.87724-.0794-.49371,3.43182-.75265,16.86571,2.47893,29.19135,6.42176,24.50275,27.03348,46.66466,57.57822,46.66121h73.04219c8.48638.06562,12.63633,13.25781,4.20175,18.36069-4.65058,2.81038-2.3063,2.05084-80.2891,2.05084-30.04066-.00691-41.95888,19.50692-42.41459,36.76277-.45574,17.25585,10.23335,39.92182,42.41459,39.9391l50.7974.02765c1.41554,0,2.73442.69742,3.54578,1.85743l60.26514,86.20244c8.41383,12.2531,22.7592,19.04433,37.5672,17.79101,14.81146-1.25332,27.81032-10.36111,34.04216-23.85371,6.23533-13.49252,4.74726-29.2914-3.89794-41.38224ZM370.98285,247.96296c-3.57684,7.68538-10.98604,12.87804-19.43443,13.61685-8.44838.73889-16.64474-3.08656-21.5025-10.03659v-.00337l-65.54061-93.53224c-.80445-1.14968-2.12333-1.83674-3.5285-1.83674h-59.995c-32.3953,0-32.3953-41.74136,0-41.74136,9.45655,0,27.27516-.17954,68.81627-.17954,43.82324.04143,42.38353-49.09186,11.41414-54.53996-8.74186-1.53987-75.31052.58346-83.9937-1.27401-20.90865-4.46758-31.83597-20.17669-35.68212-40.86786.67671-.5524.0138-.31765,110.01902-.31765,40.97834-1.01849,65.40515,16.25119,75.54529,40.75739,10.21609,24.69266,6.85331,55.57227-15.08077,76.85039-5.48261,5.32035-17.40774,12.00107-17.40774,12.00107l54.27838,77.46401c4.87159,6.93966,5.67256,15.95077,2.09227,23.63961Z" fill="#020201"/>
        </g>
        <g id="wave">
          <polygon points="497.31424 331.89889 388.62369 334.521 298.9703 362.12329 291.7684 376.14584 367.61323 364.12701 497.31424 362.91032 497.31424 331.89889" fill="#1cede8"/>
          <polygon points="493.76911 231.6097 493.76911 269.32695 420.66307 309.47756 352.22452 309.47756 304.46962 270.54363 314.81145 262.02684 383.85834 290.33264 451.99272 270.54363 493.76911 231.6097" fill="#bcfb26"/>
          <path d="M328.33662,280.24105c20.60483,18.1353,50.5328,24.91824,78.0716,21.80882,29.2024-3.29726,62.65861-19.20446,82.97033-40.36883,8.69632-9.06137,2.17559,7.15165-.09001,28.93789-24.22227,16.99417-66.01788,28.76744-100.23791,30.09194-30.66746,1.187-64.63441-5.54225-81.09993-30.37824-10.46927-12.96548-12.76543-31.55178-10.96485-48.59464,5.63407,16.98608,19.73439,28.27891,31.35077,38.50305Z" fill="#55e789"/>
          <path d="M160.25862,273.99091c-27.76297,37.88092-81.79243,58.57218-115.5851,40.45479-.009-.38216,1.59069-9.70121,1.98392-9.84731l14.44133-.29173c63.71229-1.28707,98.16684-38.98888,99.15985-30.31574Z" fill="#bcfb26"/>
          <path d="M356.41533,169.52496c1.22851,1.81303,8.85569,24.45992,4.43372,18.42724-31.15248-42.4998-125.83187-42.76095-171.65012,29.15386,4.04488-14.0857,10.28795-33.07594,19.32155-44.87735,43.4373-56.74614,126.10852-34.85585,147.89486-2.70375Z" fill="#bcfb26"/>
          <path d="M364.35758,199.50273c-12.72859-8.3909-31.9308-17.01387-46.71008-11.18394-13.29395,5.24402-20.19829,16.71505-25.87909,30.04257-17.40177,40.82565,4.15633,77.8201,11.60001,81.88947-2.72449-.17192-6.26023,1.20584-9.2992.15059-25.68535-16.26102-40.96327-34.9146-39.41609-65.81758-5.63193,9.52849-4.12713,13.53786-4.4307,24.33371-.43142,15.34272.4764,26.36812,6.74907,40.10533,4.26709,9.34496,9.97781,16.69811,17.65098,23.13378-41.3074-30.77553-53.68609-89.55801-20.98326-130.1568,2.49048-3.09179,4.12374-4.32966,1.82503-7.30011-2.46974-3.19146-1.63226-.98269-5.24183.60834-33.71335,14.86026-44.29605,38.95799-57.21469,72.79834-21.31658,55.83876-40.80349,50.62017-84.02931,53.05428,10.31845-4.42067,14.27204-.44093,48.81254-37.81486,10.16499-10.99885,17.90065-23.62168,24.07717-37.52894,3.56428-8.02546,4.49121-18.3189,20.15557-39.16779,10.0978-13.43993,23.60126-24.48756,38.30592-32.45474,26.0724-14.12639,56.79029-15.69934,83.89842-4.04738,42.01016,18.05734,48.69738,45.00381,40.12954,39.35575Z" fill="#55e789"/>
          <path d="M139.42442,330.60057c-29.84163-3.47357-65.64028-4.39279-95.49443-4.59637.6626-13.28948-7.59527-22.6298,2.61042-17.06739,18.54301,10.1065,46.20201,9.58285,62.43803,2.22387,47.29358-2.52805,69.42835-30.07625,69.46288-30.07245-4.25208,7.84775-10.9049,32.76889-39.01688,49.51233Z" fill="#0dc5c1"/>
          <polygon points="40.78688 331.89889 40.78688 360.98391 145.7681 360.98391 250.22242 378.82862 235.30734 360.98391 174.62226 341.52019 40.78688 331.89889" fill="#1cede8"/>
          <polygon points="188.0058 281.08824 147.2694 331.89889 212.78495 348.41149 188.0058 281.08824" fill="#0dc5c1"/>
          <path d="M241.81885,199.70551c-1.3604,1.21669-13.02303,60.44833-13.02303,60.44833l32.75184,62.84245,58.72815,23.91769-52.84975,37.72769-38.63025-29.27792-24.73856-30.66478-11.04954-70.24262,39.96359-62.45651,8.84753,7.70567Z" fill="#1cede8"/>
          <path d="M291.7684,356.79156c-8.3525,5.79714-16.70862,11.57699-23.96149,19.35428-10.89303-11.05915-24.87592-20.32873-38.72109-26.65285-9.14251-4.17607-20.78773-43.83174-14.5318-61.84106,7.47755,15.41721,15.66399,27.60943,27.27135,38.63849,27.67592,26.29708,43.425,24.70535,49.94302,30.50113Z" fill="#55e789"/>
          <path d="M312.45043,291.20432c49.14584,47.44518,129.38909,29.55627,179.82808-4.84378-.99285,8.8836.08153,25.91562,0,41.77286-56.49018-1.15753-118.35525.00795-172.00269,18.78058-26.10265-5.85664-52.02256-19.31099-63.36863-44.46953-10.37696-22.79005-14.04252-51.16912-1.67516-74.05456-1.54718,30.90299,17.30023,56.21806,44.68299,69.42193,4.80635,2.3176,12.34476,2.89548,12.53541-6.60749Z" fill="#0dc5c1"/>
          <path d="M489.18868,217.53903l-6.1939,9.17343c-61.81101,90.83666-188.86493,50.3106-172.61724-8.56924,6.64958-24.09881,36.90088-24.93778,48.06642-2.20962,1.35687,2.76204,2.6861,5.33074,4.60915,7.49548,2.68955,1.42591,5.66911,1.62616,8.44838.0518,5.89007-3.33172,13.89998-46.06049-19.98333-74.80644-22.53827-19.11678-48.18038-24.81695-76.70537-22.38636l-14.60429,2.3581c-8.39315,2.68953-16.33402,4.76797-23.76047,8.61067-84.58407,43.79216-40.968,129.33259-138.66485,152.72018-17.68398,4.23283-45.75323,1.38102-51.85388-.20023h-14.84943v73.39779c0,5.4274,3.72875,8.39663,8.05481,8.04101,79.72633-6.54257,149.38157-7.27455,221.64693,21.90643,11.58676,4.68168,13.92415-2.87942,49.10564-12.28417,58.81426-15.72639,123.82925-15.71257,184.39393-9.52212,4.95782.50752,9.49106-2.24416,9.49106-7.56455v-146.21215h-14.58358ZM45.87752,356.36616v-17.74267c48.52218-1.2878,153.00331,2.36845,187.09381,29.36393-62.81228-16.97617-119.57916-16.63092-187.09381-11.62126ZM156.98064,329.23946c15.89211-12.67778,21.20213-23.08376,30.88999-38.90681,1.51568,17.88422,5.7554,33.61404,14.58012,48.81564-38.02641-9.09058-26.40166-6.66688-45.47012-9.90883ZM291.61639,356.79082c-8.35175,5.79685-16.71038,11.57987-23.96074,19.35503-10.8928-11.05853-23.45664-19.70719-37.30137-26.03225-11.72142-5.35146-32.21231-42.10042-28.41796-77.67553,1.18077-23.57747,10.94805-47.05137,29.33289-63.78936-3.01753,12.25313-8.66592,21.72347-7.47478,45.39417.00346.0794.01726.25894.0138.49717-.72848,43.66096,34.80518,84.09036,75.16206,97.66923-2.14402,2.84836-5.13049,3.03826-7.35391,4.58154ZM489.31293,356.17625c-136.96618-10.08835-182.40863,12.57767-189.00304,12.1254,46.06738-28.47669,134.87741-31.52184,189.00304-29.69888v17.57348ZM320.34161,343.49158c-76.6294-16.58605-106.02443-96.64038-62.5706-150.5865,5.65183-7.01213-.69051-15.10837-9.05951-11.42105-52.72045,23.23913-50.23463,59.61867-78.33494,109.9189-8.17566,14.63537-19.29286,26.68479-34.29766,35.62343-29.84041-3.47327-59.68427-2.67573-89.5385-2.87942v-19.54835l14.37989,1.63996c28.18664,3.24195,72.52776-6.55296,96.87171-32.89247,22.8835-24.76169,26.95408-48.32882,31.40786-56.23863,14.97028-52.13354,62.63276-85.22624,113.96185-75.65921,37.90904,7.06391,58.58634,34.26312,58.98684,55.49286-10.1436-10.26789-27.93807-15.15671-44.49995-8.62103-50.72489,20.00754-37.37042,99.30921-14.27975,111.93174,3.37632,1.84567,9.65333.37283,9.51521-6.45282-.20181-9.97322-19.36185-19.27904-15.89898-52.06103,18.40553,55.49286,96.46777,64.52475,147.67946,38.08165,18.51604-9.56357,31.37334-21.30225,44.61737-37.39459-.00346,3.45255.08631,78.60081.09664,82.05337-56.49066-1.15662-115.39119.24166-169.03694,19.01319Z" fill="#020303"/>
        </g>
        <g id="brakets">
          <path d="M145.74409,228.70673c5.01067,4.46155,4.7163,12.5146.54051,16.91781-4.54613,4.79372-11.64774,5.55693-17.04607.73049l-57.99919-51.85481c-2.31269-2.06769-3.63405-5.02337-3.63262-8.12561.00144-3.10224,1.32553-6.05669,3.64014-8.12224l56.10063-50.06402c5.49526-4.90395,12.00359-6.9457,18.07495-1.91841,5.08896,4.21383,5.73993,12.88937.25351,17.80073l-47.3654,42.40072,47.43354,42.23533Z" fill="#020303"/>
          <path d="M395.26356,228.70673c-5.01067,4.46155-4.7163,12.5146-.54051,16.91781,4.54613,4.79372,11.64774,5.55693,17.04607.73049l57.99919-51.85481c2.31269-2.06769,3.63405-5.02337,3.63262-8.12561-.00144-3.10224-1.32553-6.05669-3.64014-8.12224l-56.10063-50.06402c-5.49526-4.90395-12.00359-6.9457-18.07495-1.91841-5.08896,4.21383-5.73993,12.88937-.25351,17.80073l47.3654,42.40072-47.43354,42.23533Z" fill="#020303"/>
        </g>
      </g>
      <g>
        <g id="LERP">
          <g>
            <path d="M1145.21953,116.08036c18.36208-.01349,30.38607,9.68718,30.38607,28.65353,0,16.90684-10.06522,29.55827-29.73654,29.44936h-50.69708l.02282-58.10289h50.02472ZM1142.53596,149.53179c1.79026-.01592,3.3331-2.56676,3.3331-4.09464,0-2.12141-1.35982-4.17013-4.02364-4.1926h-21.434v8.28724h22.12454Z" fill="#020303"/>
            <path d="M1191.48157,205.46576c12.23791-6.38953,22.34013-14.82745,28.59583-27.03041,13.83238-26.99553,9.92186-60.95087-10.2884-83.54125-16.36381-14.97293-37.22583-22.02586-59.52518-22.06657l-85.43251-.16296c-16.09022-.02912-26.85001,12.6394-26.84422,28.25833l.07565,154.50121c.00582,16.98055,10.7598,30.13787,28.40382,30.78963,14.39101.53533,29.51524-9.23515,29.69567-24.52235l.5062-44.43582,32.57035.01165c3.70111.00582,6.99476,2.99111,9.1421,6.01709,12.49399,17.57419,24.06843,35.01448,37.95899,51.97755,10.82962,13.2214,30.24272,14.12917,42.9403,4.68453,11.31849-9.7996,11.35913-24.85984,2.28117-36.36452l-30.07976-38.11612ZM1140.0044,173.05836h-43.39408v-55.81249h44.94792c17.57995-.6168,31.12719,10.2943,31.12719,27.75206s-10.48048,28.18261-32.68103,28.06043Z" fill="#fefb10"/>
            <path d="M1066.3484,111.83349c2.26065-6.98552,6.00731-13.20513,13.42995-13.31525l23.26563-.34515c4.76467-.07069,7.27861-3.95811,6.89024-7.79843-.39-3.85642-3.21022-6.49745-7.67595-6.36356-10.35473.31045-20.37155-.68913-30.94169.57838-10.38234,1.24499-18.82671,12.45406-18.88486,23.02109l-.31779,57.74213c-.02254,4.09549,3.39572,7.52846,6.94621,7.3619,3.87895-.18198,7.0962-3.1532,7.11056-7.4684l.17771-53.41271Z" fill="#fff"/>
          </g>
          <g>
            <path d="M1378.157,116.47434c17.09118,1.24146,28.90657,13.51524,28.76201,30.00872,1.54939,17.62332-11.58278,32.53851-30.02422,32.63837h-45.16655v-62.64709h46.42877ZM1381.60272,147.76735c0-3.17208-3.70544-6.1209-6.03645-6.12938h-17.33037v12.47729h16.91531c3.42065,0,6.45151-2.40623,6.45151-6.34791Z" fill="#020303"/>
            <path d="M1389.84924,72.15508h-100.55206c-9.79487,0-17.73519,7.94031-17.73519,17.73519v168.40935c0,14.76518,11.20716,28.19344,31.86033,28.19344,19.98949,0,28.95164-12.77165,28.95164-27.5369v-33.3577c0-2.04676,1.30243-3.76235,4.42213-3.76235h53.05315c49.61714,0,72.08749-42.94678,72.08749-75.34032,0-32.5888-22.47035-74.3407-72.08749-74.3407ZM1405.70188,146.52531c.67601,17.07226-11.18861,31.44707-29.00123,31.54758l-43.6631.23664.04967-61.01296c15.51157.28393,30.12377.47919,44.82911.47919,17.38455,0,27.15913,12.83079,27.78555,28.74954Z" fill="#fefb10"/>
            <path d="M1300.97648,113.56618c.07496-8.57634,6.721-15.59754,15.49419-15.76716l22.6025-.43701c5.20478-.10063,7.87008-2.75513,7.83827-7.11742-.02812-3.85672-2.63365-7.14999-7.70061-7.17575-9.98067-.05074-19.98424-.25693-30.07817.28352-13.5335.72461-23.08219,11.9741-23.10371,24.56878v60.96742c-.00621,3.6362,3.586,6.59072,6.53776,7.00517,2.5098.35239,8.38207-2.3795,8.40977-5.54952v-56.77802Z" fill="#fff"/>
          </g>
          <g>
            <path d="M949.31853,199.18424l-81.47434.02368.57877,37.21932,107.25232.251c11.96212.02799,19.09504,11.8888,19.73427,22.25055.8923,14.46392-8.97649,24.06919-23.12155,24.07446l-133.8075.04982c-15.79734.00588-27.88184-11.2406-27.85513-27.34501l.25917-156.2911c.02477-14.93497,11.94217-26.7954,26.77824-26.74776l137.65381.44198c11.89627.0382,18.10766,12.63973,18.37527,22.43343.38936,14.24981-8.82135,24.01708-23.11895,23.99658l-102.41996-.14687.34862,35.43998,85.30057.63668c10.94483.08169,17.0088,11.18898,17.51733,20.56842.7255,13.38125-8.12597,23.1408-22.00095,23.14484Z" fill="#a230fa"/>
            <path d="M838.85053,111.12034c-1.74311,17.79771-.40171,35.51271-.72485,53.35223-.08335,4.60152-2.86247,7.42531-7.17409,8.2545-3.31884.63826-7.51268-3.34527-7.49349-7.5998l.25073-55.59093c.05305-11.76241,9.1168-24.47708,21.35431-25.07601,19.25942-.9426,37.63502-.50448,56.5298-.12317,2.67635.05401,4.82933,4.3807,5.3964,6.36772.66506,2.33036-.97528,7.11866-4.53209,7.16286l-47.8382.59446c-7.04207.08751-14.9353,4.15057-15.76853,12.65814Z" fill="#fefb10"/>
          </g>
          <g>
            <path d="M775.1003,257.70663c.53844,16.17203-11.28608,25.83213-26.19519,25.79772l-117.07702-.27015c-16.91395-.03903-28.16635-12.27681-28.17764-28.72865l-.10898-158.84295c-.01301-18.96009,11.86713-31.66684,30.90252-31.63163,13.98711.02587,35.65529,8.77787,35.74572,25.55053v141.49703l81.13617.38769c14.39459.06342,24.09021,12.59483,23.77441,26.2404Z" fill="#a230fa"/>
            <path d="M631.12789,160.01567c-.00264,4.62373-5.18004,6.71785-7.92353,6.48414-4.00322-.34102-6.46105-3.47277-6.4403-7.90414l.30435-64.97801c.0365-7.79364,7.91033-14.96142,14.57428-14.83437,3.21542.0613,6.09271,2.35102,6.93911,4.31762,3.10287,7.20941-7.4135,6.05462-7.41988,17.24265l-.03403,59.67211Z" fill="#fefb10"/>
          </g>
          <path d="M1411.65361,241.81945c-18.60059,5.23749-36.31168,4.65771-55.04158,4.64675l-.37743,14.29533c-1.55594,58.93183-89.74853,69.29135-105.13292,8.47431-9.53589,49.29067-72.01138,53.3425-97.27383,17.16508l-32.78359-45.00025-.51717,18.57973c-1.61631,58.06744-83.43925,68.72311-103.40814,16.36242-6.84569,19.41955-23.30807,30.3355-43.16627,31.25165h-135.48721c-19.90093-.20182-36.47309-9.51861-46.51365-27.27918-8.4438,16.58616-23.97783,27.13736-42.49116,27.12649h-117.48422c-27.5933-.79937-51.03045-21.49349-51.05639-49.96543V98.09716c-.06375-69.96833,105.96149-70.7041,106.29889-2.5779v112.62833c63.5648.05753,81.15833-4.52399,99.22242,17.86429V97.59484c.13553-26.42001,21.95613-48.47049,48.67822-48.48726h140.44317c20.23009-.01269,35.4789,15.25631,40.90161,33.71725,7.71793-20.48953,25.58403-33.99641,47.37727-34.00373h86.95806c46.87552,2.17663,87.89591,23.34739,98.57939,71.72928.85966-7.57683.77961-13.76825.84433-20.93803.24461-27.09802,21.16603-50.47054,49.02112-50.6987,71.9782-.58958,124.22787-7.37111,159.23244,31.87975,41.58127,46.62537,34.46046,138.13844-46.82335,161.02605ZM749.30092,232.02739h-86.02635V93.64417c-.1784-33.05375-58.43716-35.7156-58.40855,5.93914v155.13489c.01104,16.06778,11.06573,28.1518,27.60243,28.18992h114.46569c35.93527.08283,31.92494-50.75064,2.36678-50.88074ZM949.31853,199.19608c30.89949-.00898,26.24968-43.88098,4.48362-44.04344h-85.30057l-.34862-35.68489h102.41996c32.49523.0466,27.54691-46.50435,4.74368-46.57757h-137.65381c-14.83607-.04764-26.88306,11.59181-26.90782,26.52677v156.2911c-.02671,16.10441,11.9282,27.32598,27.72555,27.3201h133.8075c33.29333-.0124,27.18858-46.41972,3.38728-46.47542h-107.25232l-.57877-37.35666h81.47434ZM1176.34104,275.26343c10.83007,13.22182,30.23949,14.12784,42.94007,4.68472,11.31765-9.80253,11.3593-24.86351,2.28239-36.36469l-30.08174-38.11596c60.98464-31.86144,46.60756-132.55588-41.2168-132.72026h-85.43229c-16.09313-.03012-26.81472,12.55554-26.80726,28.17628v154.49903c.02002,41.93917,57.76988,37.98253,58.13471,6.2695l.51121-44.43694c55.51712.0234,25.20054-8.49005,79.66972,58.00831ZM1300.08727,73.00375c-13.37554.47404-24.50386,10.21737-25.25157,24.46224-.01466.27933-.4462,155.55875-.46133,161.37798-.09044,34.7893,58.06508,37.34918,58.3118-.01507v-36.49069h51.16545c19.14454-.06234,73.02968-14.06139,73.02968-71.3463,0-35.5222-17.10939-75.27618-74.29771-78.17858-20.16449-1.02338-80.23721-.57894-82.49633.19042ZM980.9218,212.3275c14.15783,3.27204,26.08804,10.7906,33.10997,23.6601v-118.97108c-7.22452,13.65722-17.57207,22.46363-31.67416,25.50118,17.93134,19.53453,18.06378,51.58679-1.43581,69.80979ZM1249.75385,244.92724v-78.33319c-3.77878,17.30549-11.68548,31.50785-23.62739,43.91646,9.5544,11.58786,18.27832,21.75217,23.62739,34.41673Z" fill="#020303"/>
        </g>
        <g>
          <path d="M593.22738,340.77009c2.5087,0,4.28886,1.77987,4.28886,4.28829v45.55726h10.51927c2.18506,0,3.80326,1.61848,3.80326,3.80354,0,2.18449-1.6182,3.80297-3.80326,3.80297h-14.80813c-2.50842,0-4.28857-1.78044-4.28857-4.28886v-48.87492c0-2.50842,1.78016-4.28829,4.28857-4.28829Z" fill="#24c7c8"/>
          <path d="M627.21291,391.66754c1.5375,0,2.75136-.72798,3.31766-1.45652v-29.45429c0-2.50842,1.61848-4.1269,4.1269-4.1269s4.1269,1.61848,4.1269,4.1269v34.14777c0,2.58911-1.45652,3.96494-3.88424,3.96494-2.42744,0-3.80297-1.53722-3.96494-3.96494-1.21386,2.83234-3.56032,4.28886-7.03993,4.28886-5.6644,0-8.17281-3.96494-8.17281-9.46765v-28.96898c0-2.50842,1.61848-4.1269,4.1269-4.1269s4.1269,1.61848,4.1269,4.1269v27.18854c0,2.34702.89022,3.72228,3.23668,3.72228Z" fill="#24c7c8"/>
          <path d="M649.14252,371.35697c-2.50842,0-3.96494-1.45652-3.96494-3.72228v-1.1326c0-6.23069,3.72228-10.19563,11.16655-10.19563s11.24781,3.64101,11.24781,11.00487v27.59316c0,2.34646-1.61848,3.96494-4.1269,3.96494-2.18478,0-3.6413-1.45652-3.88395-3.23639-1.05218,2.1038-3.15598,3.56032-6.23098,3.56032-6.06873,0-8.90079-5.58342-8.90079-12.78531,0-7.52525,3.07471-12.29943,9.71003-12.29943,2.18478,0,3.96522.56601,5.1788,1.45652v-8.73968c0-2.02253-.88994-3.39835-3.1557-3.39835s-3.15598,1.29456-3.15598,3.64158v.56601c0,2.26576-1.69918,3.72228-3.88395,3.72228ZM656.50609,392.39608c1.21386,0,2.26576-.40462,2.83206-.88994v-9.95297c-.72826-.40462-1.5375-.72854-2.83206-.72854-2.5894,0-3.88424,1.45652-3.88424,5.58342,0,3.96494,1.13288,5.98804,3.88424,5.98804Z" fill="#24c7c8"/>
          <path d="M685.15143,391.66754c1.5375,0,2.75136-.72798,3.31766-1.45652v-29.45429c0-2.50842,1.61848-4.1269,4.1269-4.1269s4.1269,1.61848,4.1269,4.1269v34.14777c0,2.58911-1.45652,3.96494-3.88424,3.96494-2.42744,0-3.80297-1.53722-3.96494-3.96494-1.21386,2.83234-3.56032,4.28886-7.03993,4.28886-5.6644,0-8.17281-3.96494-8.17281-9.46765v-28.96898c0-2.50842,1.61848-4.1269,4.1269-4.1269s4.1269,1.61848,4.1269,4.1269v27.18854c0,2.34702.89022,3.72228,3.23668,3.72228Z" fill="#24c7c8"/>
          <path d="M721.64537,341.57933h16.18395c2.26576,0,3.80297,1.61791,3.80297,3.80297,0,2.26576-1.53722,3.80297-3.80297,3.80297h-11.89509v16.50759h9.22471c2.18478,0,3.80326,1.61848,3.80326,3.80297,0,2.26576-1.61848,3.80354-3.80326,3.80354h-9.22471v17.31626h11.97579c2.26576,0,3.80326,1.61848,3.80326,3.80354,0,2.18449-1.5375,3.80297-3.80326,3.80297h-16.26465c-2.50842,0-4.28857-1.78044-4.28857-4.28886v-48.06568c0-2.50842,1.78016-4.28829,4.28857-4.28829Z" fill="#24c7c8"/>
          <path d="M753.93257,356.30647c3.47933,0,5.74509,1.69918,6.95895,3.47905v-14.72715c0-2.50842,1.61848-4.1269,4.1269-4.1269s4.1269,1.61848,4.1269,4.1269v49.68416c0,2.42772-1.45652,4.1269-3.96522,4.1269-2.5894,0-3.88395-1.77987-4.12661-3.88424-1.13288,2.34702-3.72228,4.20816-7.03993,4.20816-5.0981,0-8.17281-4.0462-8.17281-8.65841v-25.81328c0-5.09753,2.91304-8.41519,8.09183-8.41519ZM757.41191,392.07216c1.5375,0,2.67038-.56601,3.47962-1.45652v-25.73202c-.72826-.72798-1.78016-1.45652-3.39864-1.45652-2.1038,0-3.39864,1.21386-3.39864,3.31766v21.76708c0,2.18506,1.05218,3.56032,3.31766,3.56032Z" fill="#24c7c8"/>
          <path d="M787.51348,391.66754c1.5375,0,2.75136-.72798,3.31766-1.45652v-29.45429c0-2.50842,1.61848-4.1269,4.1269-4.1269s4.1269,1.61848,4.1269,4.1269v34.14777c0,2.58911-1.45652,3.96494-3.88424,3.96494-2.42744,0-3.80297-1.53722-3.96494-3.96494-1.21386,2.83234-3.56032,4.28886-7.03993,4.28886-5.6644,0-8.17281-3.96494-8.17281-9.46765v-28.96898c0-2.50842,1.61848-4.1269,4.1269-4.1269s4.1269,1.61848,4.1269,4.1269v27.18854c0,2.34702.89022,3.72228,3.23668,3.72228Z" fill="#24c7c8"/>
          <path d="M816.96834,392.15342c2.18478,0,3.23668-1.45652,3.23668-3.47962v-2.1038c0-2.34702,1.45652-3.96494,3.88395-3.96494,2.34674,0,3.88424,1.61791,3.88424,3.96494v1.21386c0,6.39209-3.47962,11.40949-11.00487,11.40949-8.33478,0-11.49047-5.0981-11.49047-11.81411v-19.25866c0-6.71658,3.1557-11.81411,11.49047-11.81411,7.52525,0,11.00487,5.01683,11.00487,11.40949v1.21386c0,2.34646-1.5375,3.96494-3.88424,3.96494-2.42744,0-3.88395-1.61848-3.88395-3.96494v-2.10437c0-2.02253-1.0519-3.47905-3.23668-3.47905-2.18506,0-3.23696,1.45652-3.23696,3.47905v21.84835c0,2.0231,1.0519,3.47962,3.23696,3.47962Z" fill="#24c7c8"/>
          <path d="M836.55065,371.35697c-2.50842,0-3.96494-1.45652-3.96494-3.72228v-1.1326c0-6.23069,3.72199-10.19563,11.16655-10.19563s11.24781,3.64101,11.24781,11.00487v27.59316c0,2.34646-1.61848,3.96494-4.1269,3.96494-2.18478,0-3.6413-1.45652-3.88395-3.23639-1.05218,2.1038-3.15598,3.56032-6.23098,3.56032-6.06873,0-8.90079-5.58342-8.90079-12.78531,0-7.52525,3.07471-12.29943,9.71003-12.29943,2.18478,0,3.96522.56601,5.1788,1.45652v-8.73968c0-2.02253-.88994-3.39835-3.1557-3.39835s-3.15598,1.29456-3.15598,3.64158v.56601c0,2.26576-1.69918,3.72228-3.88395,3.72228ZM843.91422,392.39608c1.21386,0,2.26576-.40462,2.83206-.88994v-9.95297c-.72826-.40462-1.5375-.72854-2.83206-.72854-2.5894,0-3.88424,1.45652-3.88424,5.58342,0,3.96494,1.13288,5.98804,3.88424,5.98804Z" fill="#24c7c8"/>
          <path d="M871.02206,364.23634v26.13664c0,1.0519.40462,1.53778,1.5375,1.53778.64728,0,1.13288-.16196,1.69946-.16196,2.02282,0,2.83206,1.53722,2.83206,3.31766,0,2.83177-2.50842,4.1269-6.47364,4.1269-5.25949,0-7.84889-3.23696-7.84889-7.84917v-27.10784h-1.45652c-2.18478,0-3.47962-1.29456-3.47962-3.47962,0-2.18449,1.29484-3.47962,3.47962-3.47962h1.45652v-7.28259c0-2.50842,1.6182-4.1269,4.12661-4.1269,2.5087,0,4.1269,1.61848,4.1269,4.1269v7.28259h3.47962c2.18478,0,3.47962,1.29513,3.47962,3.47962,0,2.18506-1.29484,3.47962-3.47962,3.47962h-3.47962Z" fill="#24c7c8"/>
          <path d="M885.99243,340.93148c3.075,0,4.85516,2.26576,4.85516,5.0174,0,2.75108-1.78016,4.93557-4.85516,4.93557s-4.85516-2.18449-4.85516-4.93557c0-2.75164,1.78016-5.0174,4.85516-5.0174ZM885.99243,398.86943c-2.50842,0-4.1269-1.61848-4.1269-4.1269v-33.98581c0-2.50842,1.61848-4.1269,4.1269-4.1269s4.1269,1.61848,4.1269,4.1269v33.98581c0,2.50842-1.61848,4.1269-4.1269,4.1269Z" fill="#24c7c8"/>
          <path d="M896.51142,387.86456v-20.22987c0-6.87797,4.53123-11.32822,11.73313-11.32822s11.73313,4.45025,11.73313,11.32822v20.22987c0,6.87797-4.53152,11.32879-11.73313,11.32879s-11.73313-4.45082-11.73313-11.32879ZM908.24455,392.15342c2.26576,0,3.47933-1.37582,3.47933-3.56032v-21.68638c0-2.18506-1.21358-3.56032-3.47933-3.56032s-3.47962,1.37525-3.47962,3.56032v21.68638c0,2.18449,1.21386,3.56032,3.47962,3.56032Z" fill="#24c7c8"/>
          <path d="M937.94121,363.83172c-1.61848,0-2.75136.72854-3.31766,1.45652v29.45429c0,2.50842-1.61848,4.1269-4.1269,4.1269s-4.1269-1.61848-4.1269-4.1269v-33.82385c0-2.58968,1.45652-3.96494,3.88424-3.96494,2.42744,0,3.80297,1.21386,3.96494,3.64101,1.13288-2.83177,3.56032-4.28829,7.03993-4.28829,5.6644,0,8.41547,3.96494,8.41547,9.46709v28.96898c0,2.50842-1.6182,4.1269-4.1269,4.1269-2.50842,0-4.1269-1.61848-4.1269-4.1269v-27.18854c0-2.34646-1.1326-3.72228-3.47933-3.72228Z" fill="#24c7c8"/>
          <path d="M969.7414,357.27711h1.29456v-7.52525c0-6.47335,2.99402-9.14373,8.49645-9.14373,4.04592,0,5.98804,1.1326,5.98804,3.64101,0,2.58968-1.37554,3.64158-3.88424,3.64158h-.24266c-1.37554,0-2.1038.64728-2.1038,2.26576v7.12063h2.5894c2.18478,0,3.47933,1.29513,3.47933,3.47962,0,2.18506-1.29456,3.47962-3.47933,3.47962h-2.5894v30.50619c0,2.50842-1.61848,4.1269-4.1269,4.1269s-4.1269-1.61848-4.1269-4.1269v-30.50619h-1.29456c-2.18506,0-3.47962-1.29456-3.47962-3.47962,0-2.18449,1.29456-3.47962,3.47962-3.47962Z" fill="#24c7c8"/>
          <path d="M988.02999,387.86456v-20.22987c0-6.87797,4.53123-11.32822,11.73313-11.32822s11.73313,4.45025,11.73313,11.32822v20.22987c0,6.87797-4.53152,11.32879-11.73313,11.32879s-11.73313-4.45082-11.73313-11.32879ZM999.76312,392.15342c2.26576,0,3.47933-1.37582,3.47933-3.56032v-21.68638c0-2.18506-1.21358-3.56032-3.47933-3.56032s-3.47962,1.37525-3.47962,3.56032v21.68638c0,2.18449,1.21386,3.56032,3.47962,3.56032Z" fill="#24c7c8"/>
          <path d="M1034.55761,360.59476c0,2.83234-1.37554,4.53152-3.80326,4.53152-1.0519,0-1.69918-.40462-2.67009-.40462-.80924,0-1.45652.16196-1.94212.48589v29.53499c0,2.50842-1.61848,4.1269-4.1269,4.1269s-4.1269-1.61848-4.1269-4.1269v-33.90455c0-2.67038,1.5375-3.88424,3.96494-3.88424,2.67038,0,3.72228,1.61848,3.80326,5.01683.32364-3.88424,1.86114-5.50272,4.85516-5.50272,2.67038,0,4.04592,1.45652,4.04592,4.1269Z" fill="#24c7c8"/>
          <path d="M1061.74529,375.64583h-1.86114v19.0967c0,2.50842-1.78044,4.28886-4.28886,4.28886s-4.28829-1.78044-4.28829-4.28886v-48.87492c0-2.50842,1.77987-4.28829,4.28829-4.28829h8.1731c8.73911,0,13.10867,3.96494,13.10867,12.05677v7.68721c0,5.34076-2.83234,9.06303-6.55462,10.76221,2.83234,1.21386,4.28886,4.53152,4.93614,7.92987l2.75108,13.83721c.08126.48532.16196.88994.16196,1.21386,0,2.42715-1.61848,3.96494-4.36956,3.96494-2.50842,0-3.64101-1.37582-4.20759-3.80297l-3.39892-15.61765c-.56601-2.67038-1.94184-3.96494-4.45025-3.96494ZM1063.44447,368.12058c3.23696,0,4.85544-2.42772,4.85544-5.66468v-7.92987c0-3.39835-1.61848-5.34076-5.0981-5.34076h-3.31766v18.93531h3.56032Z" fill="#24c7c8"/>
          <path d="M1087.71996,340.93148c3.075,0,4.85544,2.26576,4.85544,5.0174,0,2.75108-1.78044,4.93557-4.85544,4.93557-3.07443,0-4.85487-2.18449-4.85487-4.93557,0-2.75164,1.78044-5.0174,4.85487-5.0174ZM1087.71996,398.86943c-2.50842,0-4.12633-1.61848-4.12633-4.1269v-33.98581c0-2.50842,1.61791-4.1269,4.12633-4.1269,2.50899,0,4.1269,1.61848,4.1269,4.1269v33.98581c0,2.50842-1.61791,4.1269-4.1269,4.1269Z" fill="#24c7c8"/>
          <path d="M1117.01173,356.46787c2.18449,0,4.04563,1.29513,4.04563,3.64158,0,.40462-.0807.80924-.16139,1.21386l-7.93044,33.98581c-.48532,2.1038-2.02253,3.72228-4.36956,3.72228-2.34646,0-3.88367-1.61848-4.36956-3.72228l-7.92987-33.98581c-.0807-.40462-.16196-.80924-.16196-1.21386,0-2.34646,1.86114-3.64158,4.0462-3.64158,2.26576,0,3.64101,1.29513,3.96494,3.39892l4.04563,23.79018c.16196,1.0519.40462,3.39835.40462,5.34019,0-1.94184.24266-4.28829.40462-5.34019l4.0462-23.79018c.32336-2.1038,1.69918-3.39892,3.96494-3.39892Z" fill="#24c7c8"/>
          <path d="M1144.03887,380.09609h-11.32879v8.82038c0,2.26576,1.21386,3.47962,3.23696,3.47962,1.77987,0,3.31766-.88994,3.31766-3.47962v-.48532c0-2.75164,1.61848-3.96494,3.88424-3.96494,2.66981,0,3.96494,1.69918,3.96494,4.04563v.64728c-.16196,5.90734-4.36956,10.03424-11.16683,10.03424-7.36386,0-11.49075-4.20816-11.49075-11.32879v-19.42063c0-7.84917,4.28886-12.13746,11.49075-12.13746,7.12063,0,11.32822,4.45025,11.32822,11.65215v8.81981c0,2.0231-1.37525,3.31766-3.23639,3.31766ZM1139.18343,373.54204v-6.71658c0-2.50842-1.21329-3.64101-3.23639-3.64101-1.9424,0-3.23696,1.1326-3.23696,3.47962v6.87797h6.47335Z" fill="#24c7c8"/>
          <path d="M1174.94911,375.88849v18.85404c0,2.50842-1.78044,4.28886-4.28886,4.28886s-4.28829-1.78044-4.28829-4.28886v-48.87492c0-2.50842,1.77987-4.28829,4.28829-4.28829h7.60652c8.82038,0,13.91791,4.45025,13.91791,13.83664v6.47392c0,8.49645-5.66411,13.9986-14.07987,13.9986h-3.1557ZM1177.86215,368.28198c3.64158,0,5.74538-2.18449,5.74538-6.06873v-6.95867c0-3.80354-1.9424-6.0693-5.58342-6.0693h-3.075v19.0967h2.91304Z" fill="#24c7c8"/>
          <path d="M1213.46701,360.59476c0,2.83234-1.37582,4.53152-3.80297,4.53152-1.0519,0-1.69975-.40462-2.67038-.40462-.80924,0-1.45652.16196-1.9424.48589v29.53499c0,2.50842-1.61791,4.1269-4.12633,4.1269-2.50899,0-4.1269-1.61848-4.1269-4.1269v-33.90455c0-2.67038,1.53722-3.88424,3.96494-3.88424,2.67038,0,3.72228,1.61848,3.80297,5.01683.32392-3.88424,1.86114-5.50272,4.85544-5.50272,2.66981,0,4.04563,1.45652,4.04563,4.1269Z" fill="#24c7c8"/>
          <path d="M1215.73277,387.86456v-20.22987c0-6.87797,4.53152-11.32822,11.73341-11.32822s11.73341,4.45025,11.73341,11.32822v20.22987c0,6.87797-4.53152,11.32879-11.73341,11.32879s-11.73341-4.45082-11.73341-11.32879ZM1227.46618,392.15342c2.26576,0,3.47962-1.37582,3.47962-3.56032v-21.68638c0-2.18506-1.21386-3.56032-3.47962-3.56032s-3.47962,1.37525-3.47962,3.56032v21.68638c0,2.18449,1.21386,3.56032,3.47962,3.56032Z" fill="#24c7c8"/>
          <path d="M1245.83434,357.27711h1.29456v-7.52525c0-6.47335,2.99373-9.14373,8.49645-9.14373,4.0462,0,5.98804,1.1326,5.98804,3.64101,0,2.58968-1.37582,3.64158-3.88424,3.64158h-.24266c-1.37582,0-2.1038.64728-2.1038,2.26576v7.12063h2.58911c2.18506,0,3.47962,1.29513,3.47962,3.47962,0,2.18506-1.29456,3.47962-3.47962,3.47962h-2.58911v30.50619c0,2.50842-1.61848,4.1269-4.1269,4.1269s-4.1269-1.61848-4.1269-4.1269v-30.50619h-1.29456c-2.18506,0-3.47962-1.29456-3.47962-3.47962,0-2.18449,1.29456-3.47962,3.47962-3.47962Z" fill="#24c7c8"/>
          <path d="M1283.70496,380.09609h-11.32879v8.82038c0,2.26576,1.21386,3.47962,3.23696,3.47962,1.77987,0,3.31766-.88994,3.31766-3.47962v-.48532c0-2.75164,1.61848-3.96494,3.88424-3.96494,2.66981,0,3.96494,1.69918,3.96494,4.04563v.64728c-.16196,5.90734-4.36956,10.03424-11.16683,10.03424-7.36386,0-11.49075-4.20816-11.49075-11.32879v-19.42063c0-7.84917,4.28886-12.13746,11.49075-12.13746,7.12063,0,11.32822,4.45025,11.32822,11.65215v8.81981c0,2.0231-1.37525,3.31766-3.23639,3.31766ZM1278.84952,373.54204v-6.71658c0-2.50842-1.21329-3.64101-3.23639-3.64101-1.9424,0-3.23696,1.1326-3.23696,3.47962v6.87797h6.47335Z" fill="#24c7c8"/>
          <path d="M1291.14951,389.15912v-1.1326c0-2.75108,1.61848-4.0462,3.88424-4.0462,2.42772,0,3.88424,1.45652,3.88424,3.88424v.72854c0,2.42715,1.21386,4.04563,3.47905,4.04563,2.58968,0,3.56088-1.86114,3.56088-4.1269,0-3.39835-1.86114-5.42145-5.1788-7.60652-5.58342-3.72228-9.62962-7.28259-9.62962-13.83664,0-6.63531,4.36956-10.76221,11.00487-10.76221,7.1212,0,10.84348,4.1269,10.84348,10.35759v.97063c0,1.9424-1.29513,3.72228-3.88424,3.72228-2.67038,0-3.88424-1.61848-3.88424-3.72228v-1.29456c0-2.0231-.88994-3.47962-3.075-3.47962-2.1038,0-3.075,1.37582-3.075,3.56032,0,3.39892,1.78044,4.93614,5.26006,7.36386,4.85487,3.39835,9.54835,6.63531,9.54835,13.91791,0,6.23069-4.1269,11.49075-11.65215,11.49075-6.23069,0-11.08613-4.1269-11.08613-10.03424Z" fill="#24c7c8"/>
          <path d="M1317.44868,389.15912v-1.1326c0-2.75108,1.61848-4.0462,3.88424-4.0462,2.42772,0,3.88424,1.45652,3.88424,3.88424v.72854c0,2.42715,1.21386,4.04563,3.47905,4.04563,2.58968,0,3.56088-1.86114,3.56088-4.1269,0-3.39835-1.86114-5.42145-5.1788-7.60652-5.58342-3.72228-9.62962-7.28259-9.62962-13.83664,0-6.63531,4.36956-10.76221,11.00487-10.76221,7.1212,0,10.84348,4.1269,10.84348,10.35759v.97063c0,1.9424-1.29513,3.72228-3.88424,3.72228-2.67038,0-3.88424-1.61848-3.88424-3.72228v-1.29456c0-2.0231-.88994-3.47962-3.075-3.47962-2.1038,0-3.075,1.37582-3.075,3.56032,0,3.39892,1.78044,4.93614,5.26006,7.36386,4.85487,3.39835,9.54835,6.63531,9.54835,13.91791,0,6.23069-4.1269,11.49075-11.65215,11.49075-6.23069,0-11.08613-4.1269-11.08613-10.03424Z" fill="#24c7c8"/>
          <path d="M1349.57392,340.93148c3.07443,0,4.85487,2.26576,4.85487,5.0174,0,2.75108-1.78044,4.93557-4.85487,4.93557-3.075,0-4.85544-2.18449-4.85544-4.93557,0-2.75164,1.78044-5.0174,4.85544-5.0174ZM1349.57392,398.86943c-2.50899,0-4.1269-1.61848-4.1269-4.1269v-33.98581c0-2.50842,1.61791-4.1269,4.1269-4.1269,2.50842,0,4.12633,1.61848,4.12633,4.1269v33.98581c0,2.50842-1.61791,4.1269-4.12633,4.1269Z" fill="#24c7c8"/>
          <path d="M1360.09234,387.86456v-20.22987c0-6.87797,4.53152-11.32822,11.73341-11.32822s11.73341,4.45025,11.73341,11.32822v20.22987c0,6.87797-4.53152,11.32879-11.73341,11.32879s-11.73341-4.45082-11.73341-11.32879ZM1371.82575,392.15342c2.26576,0,3.47962-1.37582,3.47962-3.56032v-21.68638c0-2.18506-1.21386-3.56032-3.47962-3.56032s-3.47962,1.37525-3.47962,3.56032v21.68638c0,2.18449,1.21386,3.56032,3.47962,3.56032Z" fill="#24c7c8"/>
          <path d="M1401.5227,363.83172c-1.61791,0-2.75108.72854-3.31766,1.45652v29.45429c0,2.50842-1.61791,4.1269-4.12633,4.1269-2.50899,0-4.1269-1.61848-4.1269-4.1269v-33.82385c0-2.58968,1.45652-3.96494,3.88367-3.96494,2.42772,0,3.80354,1.21386,3.96494,3.64101,1.13316-2.83177,3.56088-4.28829,7.03993-4.28829,5.66468,0,8.41576,3.96494,8.41576,9.46709v28.96898c0,2.50842-1.61848,4.1269-4.1269,4.1269s-4.1269-1.61848-4.1269-4.1269v-27.18854c0-2.34646-1.1326-3.72228-3.47962-3.72228Z" fill="#24c7c8"/>
          <path d="M1423.20795,371.35697c-2.50842,0-3.96494-1.45652-3.96494-3.72228v-1.1326c0-6.23069,3.72228-10.19563,11.16683-10.19563s11.24753,3.64101,11.24753,11.00487v27.59316c0,2.34646-1.61791,3.96494-4.12633,3.96494-2.18506,0-3.64158-1.45652-3.88424-3.23639-1.0519,2.1038-3.1557,3.56032-6.23069,3.56032-6.0693,0-8.90107-5.58342-8.90107-12.78531,0-7.52525,3.075-12.29943,9.71031-12.29943,2.18449,0,3.96494.56601,5.1788,1.45652v-8.73968c0-2.02253-.89051-3.39835-3.15626-3.39835s-3.1557,1.29456-3.1557,3.64158v.56601c0,2.26576-1.69918,3.72228-3.88424,3.72228ZM1430.57181,392.39608c1.21386,0,2.26576-.40462,2.83234-.88994v-9.95297c-.72854-.40462-1.53778-.72854-2.83234-.72854-2.58968,0-3.88424,1.45652-3.88424,5.58342,0,3.96494,1.13316,5.98804,3.88424,5.98804Z" fill="#24c7c8"/>
          <path d="M1452.25876,398.86943c-2.50899,0-4.1269-1.61848-4.1269-4.1269v-49.68416c0-2.50842,1.61791-4.1269,4.1269-4.1269,2.50842,0,4.12633,1.61848,4.12633,4.1269v49.68416c0,2.50842-1.61791,4.1269-4.12633,4.1269Z" fill="#24c7c8"/>
          <path d="M1462.1299,389.15912v-1.1326c0-2.75108,1.61848-4.0462,3.88424-4.0462,2.42772,0,3.88424,1.45652,3.88424,3.88424v.72854c0,2.42715,1.21386,4.04563,3.47905,4.04563,2.58968,0,3.56088-1.86114,3.56088-4.1269,0-3.39835-1.86114-5.42145-5.1788-7.60652-5.58342-3.72228-9.62962-7.28259-9.62962-13.83664,0-6.63531,4.36956-10.76221,11.00487-10.76221,7.1212,0,10.84348,4.1269,10.84348,10.35759v.97063c0,1.9424-1.29513,3.72228-3.88424,3.72228-2.67038,0-3.88424-1.61848-3.88424-3.72228v-1.29456c0-2.0231-.88994-3.47962-3.075-3.47962-2.1038,0-3.075,1.37582-3.075,3.56032,0,3.39892,1.78044,4.93614,5.26006,7.36386,4.85487,3.39835,9.54835,6.63531,9.54835,13.91791,0,6.23069-4.1269,11.49075-11.65215,11.49075-6.23069,0-11.08613-4.1269-11.08613-10.03424Z" fill="#24c7c8"/>
        </g>
      </g>
    </g>
  </g>
</svg>